<?xml version="1.0" encoding="iso-8859-1"?>
<!-- Generator: Adobe Illustrator 19.0.0, SVG Export Plug-In . SVG Version: 6.00 Build 0)  -->
<svg version="1.1" id="Capa_1" xmlns="http://www.w3.org/2000/svg" xmlns:xlink="http://www.w3.org/1999/xlink" x="0px" y="0px"
	 viewBox="0 0 511.998 511.998" style="enable-background:new 0 0 511.998 511.998;" xml:space="preserve">
<g>
	<g>
		<g>
			<path d="M292.814,333.073l-16.529-9.02c-7.253-3.951-11.75-11.537-11.75-19.797v-28.228c5.709-7.484,22.067-30.814,29.884-61.764
				c8.064-6.468,12.783-16.145,12.783-26.53V153.6c0-8.218-3.072-16.188-8.533-22.4V85.803c0.478-4.685,2.347-32.631-17.86-55.68
				C263.289,10.129,234.839,0,196.268,0c-38.579,0-67.021,10.129-84.548,30.123c-20.207,23.049-18.338,50.995-17.852,55.68V131.2
				c-5.47,6.212-8.533,14.182-8.533,22.4v34.133c0,10.385,4.71,20.062,12.774,26.53c7.817,30.95,24.175,54.281,29.892,61.764v28.228
				c0,8.26-4.506,15.846-11.759,19.797l-76.126,41.532c-24.747,13.5-40.115,39.39-40.115,67.576v36.173
				c0,4.71,3.814,8.533,8.533,8.533h290.372c-16.145-21.427-25.839-47.966-25.839-76.8
				C273.068,376.073,280.372,352.802,292.814,333.073z"/>
			<path d="M401.064,290.132c-61.167,0-110.933,49.766-110.933,110.933s49.766,110.933,110.933,110.933
				s110.933-49.766,110.933-110.933S462.231,290.132,401.064,290.132z M452.264,409.598h-42.667v42.667
				c0,4.71-3.823,8.533-8.533,8.533s-8.533-3.823-8.533-8.533v-42.667h-42.667c-4.71,0-8.533-3.823-8.533-8.533
				s3.823-8.533,8.533-8.533h42.667v-42.667c0-4.71,3.823-8.533,8.533-8.533s8.533,3.823,8.533,8.533v42.667h42.667
				c4.71,0,8.533,3.823,8.533,8.533S456.974,409.598,452.264,409.598z"/>
		</g>
	</g>
</g>
<g>
</g>
<g>
</g>
<g>
</g>
<g>
</g>
<g>
</g>
<g>
</g>
<g>
</g>
<g>
</g>
<g>
</g>
<g>
</g>
<g>
</g>
<g>
</g>
<g>
</g>
<g>
</g>
<g>
</g>
</svg>
