<?xml version="1.0" encoding="UTF-8" standalone="no"?>
<!-- Created with Inkscape (http://www.inkscape.org/) -->

<svg
   xmlns:dc="http://purl.org/dc/elements/1.1/"
   xmlns:cc="http://creativecommons.org/ns#"
   xmlns:rdf="http://www.w3.org/1999/02/22-rdf-syntax-ns#"
   xmlns:svg="http://www.w3.org/2000/svg"
   xmlns="http://www.w3.org/2000/svg"
   xmlns:xlink="http://www.w3.org/1999/xlink"
   xmlns:sodipodi="http://sodipodi.sourceforge.net/DTD/sodipodi-0.dtd"
   xmlns:inkscape="http://www.inkscape.org/namespaces/inkscape"
   version="1.1"
   id="svg946"
   width="145.45454"
   height="141.57576"
   viewBox="0 0 145.45454 141.57576"
   sodipodi:docname="arrow_up_pressed.svg"
   inkscape:version="0.92.2 5c3e80d, 2017-08-06">
  <metadata
     id="metadata952">
    <rdf:RDF>
      <cc:Work
         rdf:about="">
        <dc:format>image/svg+xml</dc:format>
        <dc:type
           rdf:resource="http://purl.org/dc/dcmitype/StillImage" />
        <dc:title></dc:title>
      </cc:Work>
    </rdf:RDF>
  </metadata>
  <defs
     id="defs950">
    <linearGradient
       inkscape:collect="always"
       id="linearGradient2075">
      <stop
         style="stop-color:#71a151;stop-opacity:1;"
         offset="0"
         id="stop2071" />
      <stop
         style="stop-color:#71a151;stop-opacity:0;"
         offset="1"
         id="stop2073" />
    </linearGradient>
    <filter
       inkscape:collect="always"
       style="color-interpolation-filters:sRGB"
       id="filter2051"
       x="-0.01792868"
       width="1.0358574"
       y="-0.036288714"
       height="1.0725774">
      <feGaussianBlur
         inkscape:collect="always"
         stdDeviation="1.0704601"
         id="feGaussianBlur2053" />
    </filter>
    <linearGradient
       inkscape:collect="always"
       xlink:href="#linearGradient2075"
       id="linearGradient2077"
       x1="71"
       y1="68.07576"
       x2="72"
       y2="26.07576"
       gradientUnits="userSpaceOnUse" />
  </defs>
  <sodipodi:namedview
     pagecolor="#ffffff"
     bordercolor="#666666"
     borderopacity="1"
     objecttolerance="10"
     gridtolerance="10"
     guidetolerance="10"
     inkscape:pageopacity="0"
     inkscape:pageshadow="2"
     inkscape:window-width="1280"
     inkscape:window-height="707"
     id="namedview948"
     showgrid="false"
     inkscape:zoom="2"
     inkscape:cx="94.738275"
     inkscape:cy="94.503909"
     inkscape:window-x="0"
     inkscape:window-y="1"
     inkscape:window-maximized="1"
     inkscape:current-layer="svg946"
     inkscape:snap-global="false"
     scale-x="0.5" />
  <path
     style="fill:#c0dea9;fill-opacity:1;stroke:#787d78;stroke-width:2.2;stroke-linecap:butt;stroke-linejoin:miter;stroke-miterlimit:4;stroke-dasharray:none;stroke-opacity:0.99607843;"
     d="M 34.558667,128.59987 34.3814,82.460978 H 9.1857141 C 1.376439,81.087808 -1.6094124,71.719383 2.7016109,66.810763 L 65.276111,4.6581332 c 4.037841,-3.4967171 9.535881,-6.2789256 15.52611,0.018293 L 141.07527,64.189073 c 5.29506,4.738711 6.69457,14.861871 -5.14333,18.489848 l -28.06312,-0.198081 0.075,46.45828 c -1.16973,9.79847 -6.14469,11.08197 -10.985624,11.64782 l -50.57885,0.0754 c -5.665457,-1.19606 -11.014433,-2.91029 -11.820679,-12.06247 z"
     id="path1682"
     inkscape:connector-curvature="0"
     sodipodi:nodetypes="ccccccccccccc" />
  <path
     sodipodi:nodetypes="ccccccccccccc"
     inkscape:connector-curvature="0"
     id="path1693"
     d="m 43.610109,122.18558 0.18448,-46.441117 H 24.796406 C 13.697342,75.990206 13.219665,68.642874 19.954354,61.212257 37.298271,42.176909 58.060244,20.800157 72.921703,6.2653909 91.128087,22.77342 107.65649,41.249571 124.77469,58.933766 c 7.98376,7.510673 10.70683,15.868289 -3.8782,16.573306 l -21.1603,-0.177548 -0.791777,47.160146 c -0.882004,8.78282 -4.63325,9.93328 -8.283441,10.44047 l -38.137725,0.0675 c -4.271898,-1.07208 -8.305161,-2.60864 -8.91309,-10.81215 z"
     style="fill:url(#linearGradient2077);fill-opacity:1;stroke:#c0dea9;stroke-width:0;stroke-linecap:butt;stroke-linejoin:miter;stroke-miterlimit:4;stroke-dasharray:none;stroke-opacity:1" />
  <path
     style="fill:#4b7b2b;fill-opacity:0.94117647;stroke:#558336;stroke-width:1;stroke-linecap:butt;stroke-linejoin:miter;stroke-opacity:1;stroke-miterlimit:4;stroke-dasharray:none;filter:url(#filter2051)"
     d="m 144.43855,69.395834 c -4.38072,0.009 -8.76183,0.006 -13.14258,0.004 0.0765,3.30532 -2.8213,5.7392 -10.39844,6.10546 l -21.16211,-0.17578 -0.791007,47.160156 c -0.882,8.78282 -4.633013,9.93226 -8.283203,10.43945 l -38.138672,0.0684 c -4.2719,-1.07208 -8.30419,-2.60899 -8.91211,-10.8125 l 0.195313,-46.457031 -19.009765,0.01563 c -6.74779,0.14941 -9.550907,-2.51485 -9.212891,-6.29101 -4.858036,0.0552 -9.1418082,0.06951 -13.9996942,0.153076 -1.45679996,5.01259 1.4578287,11.021121 7.4697403,12.369162 l 25.8290879,0.01606 0.177734,46.536408 c 0.05495,7.56119 5.580338,10.91063 11.378371,11.66475 l 50.622319,-0.0762 c 3.957047,-0.43327 9.197877,-1.31768 10.367607,-11.11616 l -0.032,-46.989298 28.57989,0.18238 c 6.93925,-1.749945 9.85098,-7.694526 7.97625,-12.531686 z"
     id="path1727"
     inkscape:connector-curvature="0"
     sodipodi:nodetypes="cccccccccccccccccccccc" />
</svg>
