<?xml version="1.0" encoding="iso-8859-1"?>
<!-- Generator: Adobe Illustrator 19.0.0, SVG Export Plug-In . SVG Version: 6.00 Build 0)  -->
<svg version="1.1" id="Layer_1" xmlns="http://www.w3.org/2000/svg" xmlns:xlink="http://www.w3.org/1999/xlink" x="0px" y="0px"
	 viewBox="0 0 512.001 512.001" style="enable-background:new 0 0 512.001 512.001;" xml:space="preserve">
<g>
	<g>
		<path d="M460.119,268.757l-35.72-35.721c-15.308-15.309-40.824-15.309-56.132,0l-47.628,49.328V40.824
			C320.638,18.711,301.927,0,279.814,0h-49.328c-22.113,0-37.422,17.01-37.422,40.824v238.139l-45.926-45.927
			c-15.308-15.309-42.524-15.309-56.133,0l-39.123,35.721c-6.804,6.804-11.907,17.01-11.907,28.917
			c0,10.206,3.402,20.412,11.907,27.216l175.203,175.203c6.804,6.804,17.01,11.907,28.916,11.907h1.701
			c10.206,0,20.412-3.402,27.216-11.907L460.12,324.891c6.804-6.804,11.907-17.01,11.907-28.917
			C472.026,285.767,466.923,275.561,460.119,268.757z M436.305,301.077L261.103,474.577c-1.701,1.701-3.402,1.701-3.402,1.701H256
			c-1.701,0-3.402,0-3.402-1.701L75.694,299.375c-1.701-1.701-1.701-3.402-1.701-3.402s0-3.402,1.701-3.402l35.72-35.721
			c1.701-1.701,6.804-1.701,8.505,0l74.844,74.844c5.103,5.103,11.906,6.804,18.711,3.402c6.804-3.402,10.206-8.505,10.206-15.308
			V40.824c0-3.402,1.701-6.804,3.402-6.804h49.329c3.402,0,6.804,3.402,6.804,6.804v282.365c0,6.804,3.402,13.608,10.206,15.309
			c6.804,3.402,13.608,1.701,18.711-3.402l76.545-78.246c3.402-3.402,5.103-3.402,6.804,0l35.721,35.721
			c1.701,1.701,1.701,3.402,1.701,3.402C438.006,297.675,436.305,299.375,436.305,301.077z"/>
	</g>
</g>
<g>
</g>
<g>
</g>
<g>
</g>
<g>
</g>
<g>
</g>
<g>
</g>
<g>
</g>
<g>
</g>
<g>
</g>
<g>
</g>
<g>
</g>
<g>
</g>
<g>
</g>
<g>
</g>
<g>
</g>
</svg>
