<svg width="374.846" height="374.846" viewBox="0 0 374.846 374.846" xmlns="http://www.w3.org/2000/svg" xmlns:xlink="http://www.w3.org/1999/xlink" id="Capa_1" overflow="hidden"><g><g><g><path d="M326.147 267.326C330.315 260.572 339.022 258.232 346.016 261.99L351.846 265.125C355.481 267.08 358.151 270.445 359.225 274.43 360.301 278.414 359.686 282.666 357.53 286.184 349.229 299.703 339.235 312.125 327.821 323.107 325.016 325.799 321.29 327.295 317.424 327.295 317.182 327.295 316.942 327.289 316.698 327.277 312.575 327.078 308.717 325.187 306.03 322.05L301.721 317.025C296.557 311 296.981 301.994 302.688 296.478 311.678 287.793 319.573 277.984 326.147 267.326Z"/><path d="M208.809 338.262C221.314 337.359 233.682 334.918 245.579 331.01 253.108 328.535 261.264 332.344 264.196 339.705L266.647 345.858C268.176 349.697 268.055 353.996 266.313 357.742 264.573 361.488 261.36 364.346 257.44 365.649 249.346 368.336 240.989 370.492 232.592 372.056 225.48 373.384 218.215 374.31 211 374.81 210.651 374.833 210.307 374.845 209.963 374.845 206.204 374.845 202.567 373.433 199.788 370.866 196.754 368.064 195.008 364.136 194.965 360.007L194.894 353.382C194.809 345.459 200.906 338.834 208.809 338.262Z"/><path d="M89.693 312.596C94.732 306.461 103.677 305.32 110.097 309.984 120.232 317.344 131.257 323.419 142.87 328.037 150.243 330.97 154.058 339.138 151.571 346.673L149.499 352.96C148.206 356.88 145.354 360.095 141.616 361.847 139.604 362.788 137.43 363.263 135.255 363.263 133.388 363.263 131.517 362.913 129.743 362.214 115.013 356.396 101.048 348.704 88.235 339.351 84.903 336.917 82.719 333.218 82.198 329.124 81.678 325.027 82.87 320.9 85.489 317.714L89.693 312.596Z"/><path d="M28.699 214.609 35.207 213.393C43.027 211.939 50.621 216.831 52.521 224.549 55.55 236.838 60.113 248.678 66.082 259.74 69.848 266.719 67.531 275.426 60.793 279.607L55.168 283.098C52.77 284.585 50.027 285.355 47.256 285.355 45.971 285.355 44.68 285.191 43.414 284.855 39.422 283.794 36.043 281.139 34.072 277.507 26.47 263.495 20.685 248.491 16.879 232.909 15.9 228.904 16.613 224.675 18.85 221.212 21.087 217.753 24.648 215.365 28.699 214.609Z"/><path d="M36.849 170.858 30.122 170.858C30.116 170.858 30.108 170.858 30.102 170.858 21.815 170.858 15.102 164.143 15.102 155.858 15.102 154.639 15.245 153.454 15.52 152.319 21.104 122.479 34.163 94.079 53.321 70.131 82.325 33.873 123.52 9.826 169.319 2.416 179.227 0.814 189.325 0 199.333 0 225.085 0 250.646 5.385 274.146 15.67L285.833 3.982C288.246 1.57 291.742 0.593 295.058 1.408 298.371 2.22 301.019 4.707 302.039 7.963L326.23 85.123C327.316 88.588 326.388 92.371 323.82 94.939 321.253 97.507 317.47 98.435 314.005 97.349L236.845 73.158C233.589 72.138 231.106 69.49 230.289 66.176 229.476 62.864 230.451 59.365 232.865 56.953L245.878 43.939C230.857 38.976 215.222 36.466 199.193 36.466 153.396 36.466 110.646 57.07 81.906 92.997 66.597 112.132 56.113 134.837 51.584 158.659 50.24 165.737 44.052 170.858 36.849 170.858Z"/></g></g></g><g></g><g></g><g></g><g></g><g></g><g></g><g></g><g></g><g></g><g></g><g></g><g></g><g></g><g></g><g></g></svg>