<svg width="48.4" height="48.4" viewBox="0 0 48.4 48.4" xmlns="http://www.w3.org/2000/svg" xmlns:xlink="http://www.w3.org/1999/xlink" id="Capa_1" overflow="hidden"><g><path d="M48.4 24.2C48.4 22.4 47.103 20.481 45.504 19.915 43.905 19.349 42.355 17.963 41.904 16.87 41.453 15.777 41.57 13.697 42.3 12.165 43.029 10.633 42.587 8.358 41.314 7.085 40.042 5.812 37.767 5.371 36.234 6.1 34.702 6.829 32.625 6.948 31.535 6.497 30.445 6.046 29.058 4.494 28.49 2.895 27.921 1.296 26 0 24.2 0 22.4 0 20.479 1.296 19.91 2.895 19.341 4.494 17.955 6.046 16.865 6.497 15.775 6.948 13.697 6.829 12.165 6.1 10.633 5.371 8.358 5.812 7.085 7.085 5.812 8.358 5.371 10.632 6.1 12.165 6.829 13.698 6.945 15.776 6.492 16.868 6.039 17.96 4.494 19.349 2.895 19.915 1.296 20.481 0 22.4 0 24.2 0 26 1.296 27.921 2.895 28.49 4.494 29.058 6.041 30.447 6.494 31.537 6.947 32.626 6.829 34.703 6.1 36.235 5.371 37.767 5.812 40.042 7.085 41.315 8.358 42.587 10.632 43.029 12.165 42.3 13.698 41.571 15.775 41.453 16.865 41.905 17.956 42.357 19.341 43.913 19.91 45.509 20.479 47.105 22.4 48.4 24.2 48.4 26 48.4 27.921 47.105 28.49 45.509 29.058 43.913 30.443 42.359 31.533 41.905 32.623 41.452 34.703 41.571 36.234 42.301 37.767 43.03 40.042 42.588 41.314 41.316 42.587 40.043 43.029 37.768 42.3 36.236 41.571 34.703 41.451 32.626 41.902 31.536 42.353 30.446 43.906 29.059 45.505 28.491 47.104 27.921 48.4 26 48.4 24.2ZM24.2 33.08C19.29 33.08 15.32 29.11 15.32 24.21 15.32 19.3 19.29 15.33 24.2 15.33 29.099 15.33 33.07 19.3 33.07 24.21 33.07 29.11 29.1 33.08 24.2 33.08Z"/></g><g></g><g></g><g></g><g></g><g></g><g></g><g></g><g></g><g></g><g></g><g></g><g></g><g></g><g></g><g></g></svg>