<?xml version="1.0" encoding="UTF-8" standalone="no"?>
<!-- Created with Inkscape (http://www.inkscape.org/) -->

<svg
   xmlns:dc="http://purl.org/dc/elements/1.1/"
   xmlns:cc="http://creativecommons.org/ns#"
   xmlns:rdf="http://www.w3.org/1999/02/22-rdf-syntax-ns#"
   xmlns:svg="http://www.w3.org/2000/svg"
   xmlns="http://www.w3.org/2000/svg"
   xmlns:sodipodi="http://sodipodi.sourceforge.net/DTD/sodipodi-0.dtd"
   xmlns:inkscape="http://www.inkscape.org/namespaces/inkscape"
   version="1.1"
   id="svg5359"
   width="100"
   height="100"
   viewBox="0 0 100 100"
   sodipodi:docname="size_plus_empty.svg"
   inkscape:version="0.92.2 5c3e80d, 2017-08-06">
  <metadata
     id="metadata5365">
    <rdf:RDF>
      <cc:Work
         rdf:about="">
        <dc:format>image/svg+xml</dc:format>
        <dc:type
           rdf:resource="http://purl.org/dc/dcmitype/StillImage" />
        <dc:title></dc:title>
      </cc:Work>
    </rdf:RDF>
  </metadata>
  <defs
     id="defs5363" />
  <sodipodi:namedview
     pagecolor="#ffffff"
     bordercolor="#666666"
     borderopacity="1"
     objecttolerance="10"
     gridtolerance="10"
     guidetolerance="10"
     inkscape:pageopacity="0"
     inkscape:pageshadow="2"
     inkscape:window-width="1280"
     inkscape:window-height="707"
     id="namedview5361"
     showgrid="false"
     inkscape:zoom="2.36"
     inkscape:cx="8.2762813"
     inkscape:cy="76.300269"
     inkscape:window-x="0"
     inkscape:window-y="1"
     inkscape:window-maximized="1"
     inkscape:current-layer="svg5359" />
  <path
     style="fill:#000000"
     d="M 5.4294828,87.676831 C 5.1502217,86.949088 11.66134,69.061588 19.898634,47.926831 L 34.875534,9.5 h 7.295814 7.295815 L 64.572545,48 C 72.880506,69.175 79.477249,87.0625 79.231975,87.75 78.934672,88.583337 76.524723,89 72.002064,89 H 65.218106 L 60.99068,77.474592 56.763255,65.949183 41.769171,66.224592 26.775087,66.5 23.451607,75.696038 C 18.455305,89.520759 18.906162,89 11.933431,89 7.8821189,89 5.7725407,88.570826 5.4294828,87.676831 Z M 17.974372,79.25 C 19.13931,76.0875 20.82413,71.475 21.718416,69 c 2.66858,-7.38548 1.722177,-7.075414 20.672996,-6.773006 L 59.499747,62.5 l 4.105725,11 4.105725,11 3.59225,0.307256 3.592251,0.307256 -3.438845,-8.807256 C 69.565488,71.463265 63.166836,55.125 57.237625,40 L 46.457243,12.5 H 42.126151 37.795059 L 24.39134,46.981822 C 17.019294,65.946824 10.735081,82.259324 10.426422,83.231822 9.9750063,84.654109 10.451213,85 12.860763,85 c 2.734503,0 3.180111,-0.501064 5.113609,-5.75 z m 8.997443,-23 c -0.0155,-0.4125 3.00064,-9.1875 6.702538,-19.5 C 38.569392,23.113728 40.838181,18 41.993097,18 c 1.155658,0 3.403981,5.080346 8.257853,18.659579 3.668408,10.262769 6.436099,19.037769 6.150424,19.5 C 55.758468,57.199824 27.010829,57.28815 26.971815,56.25 Z M 47.432357,40.363876 C 44.966937,33.414008 42.673946,27.281451 42.336822,26.735973 41.901919,26.032284 32.294382,50.274288 32.027,52.75 32.01215,52.8875 36.480861,53 41.95747,53 h 9.957469 z m 34.23431,19.969457 C 81.3,59.966667 81,57.941667 81,55.833333 81,52.047952 80.951494,52 77.122445,52 73.429964,52 70.271298,50.062035 71.675343,48.657991 72.037238,48.296096 74.258677,48 76.611875,48 h 4.278543 l 0.304791,-4.741006 c 0.225425,-3.506471 0.745553,-4.824664 1.997456,-5.062282 1.368429,-0.259735 1.751536,0.600533 2,4.491006 L 85.5,47.5 90.25,47.804791 C 93.3985,48.00682 95,48.560774 95,49.447802 95,51.14041 92.783229,52 88.418213,52 85.033664,52 85,52.044318 85,56.5 c 0,4.251247 -1.356009,5.810658 -3.333333,3.833333 z"
     id="path5912"
     inkscape:connector-curvature="0" />
</svg>
