<?xml version="1.0" encoding="UTF-8" standalone="no"?>
<!-- Created with Inkscape (http://www.inkscape.org/) -->

<svg
   xmlns:dc="http://purl.org/dc/elements/1.1/"
   xmlns:cc="http://creativecommons.org/ns#"
   xmlns:rdf="http://www.w3.org/1999/02/22-rdf-syntax-ns#"
   xmlns:svg="http://www.w3.org/2000/svg"
   xmlns="http://www.w3.org/2000/svg"
   xmlns:sodipodi="http://sodipodi.sourceforge.net/DTD/sodipodi-0.dtd"
   xmlns:inkscape="http://www.inkscape.org/namespaces/inkscape"
   version="1.1"
   id="svg6631"
   width="100"
   height="100"
   viewBox="0 0 100 100"
   sodipodi:docname="size_minus_empty.svg"
   inkscape:version="0.92.2 5c3e80d, 2017-08-06">
  <metadata
     id="metadata6637">
    <rdf:RDF>
      <cc:Work
         rdf:about="">
        <dc:format>image/svg+xml</dc:format>
        <dc:type
           rdf:resource="http://purl.org/dc/dcmitype/StillImage" />
        <dc:title></dc:title>
      </cc:Work>
    </rdf:RDF>
  </metadata>
  <defs
     id="defs6635" />
  <sodipodi:namedview
     pagecolor="#ffffff"
     bordercolor="#666666"
     borderopacity="1"
     objecttolerance="10"
     gridtolerance="10"
     guidetolerance="10"
     inkscape:pageopacity="0"
     inkscape:pageshadow="2"
     inkscape:window-width="1280"
     inkscape:window-height="707"
     id="namedview6633"
     showgrid="false"
     inkscape:zoom="26.700352"
     inkscape:cx="48.20036"
     inkscape:cy="73.811509"
     inkscape:window-x="0"
     inkscape:window-y="1"
     inkscape:window-maximized="1"
     inkscape:current-layer="svg6631" />
  <path
     style="fill:#000000"
     d="M 8.5466988,88.07556 C 8.2003276,87.51512 13.755784,72.081348 20.892158,53.778289 L 33.867383,20.5 h 6.301976 6.301976 L 59.232824,53 c 7.018819,17.875 12.762769,33.308973 12.764333,34.297717 0.0025,1.570531 -0.787001,1.760094 -6.247157,1.5 L 59.5,88.5 55.946389,79 52.392777,69.5 H 39.97344 27.554102 l -3.652168,9.5 -3.652168,9.5 -5.536651,0.297271 C 11.667957,88.96077 8.8930699,88.636 8.5466988,88.07556 Z M 20.956711,75.75 c 1.870833,-5.0875 3.883413,-9.580609 4.472401,-9.984687 1.974878,-1.354874 28.217272,-0.896321 29.387324,0.513506 0.583729,0.703351 2.481388,5.203351 4.217018,10 C 61.808744,83.948705 62.479109,85 64.594573,85 c 1.322985,0 2.404312,-0.3375 2.40295,-0.75 -0.0014,-0.4125 -5.176363,-13.99207 -11.5,-30.176822 C 49.173885,37.888426 44,24.500926 44,24.323178 44,24.14543 42.3125,24.010072 40.25,24.022383 L 36.5,24.044766 25,53.684886 C 18.675,69.986952 13.35,83.701879 13.166667,84.162503 12.983333,84.623126 13.895753,85 15.194265,85 c 2.065932,0 2.785955,-1.155796 5.762446,-9.25 z M 27.47829,60.964873 c -0.351859,-0.56932 1.969418,-8.21932 5.158393,-17 C 36.905375,32.211248 38.866473,28 40.071221,28 c 1.210957,0 3.113746,4.169419 7.318758,16.036971 3.125296,8.820334 5.414523,16.470334 5.087172,17 -0.815428,1.319389 -24.180521,1.252003 -24.998861,-0.0721 z M 47.572534,56.25 C 44.439286,46.497625 40.170265,35.915488 39.685597,36.699697 39.064577,37.704528 32,56.933754 32,57.61929 32,57.828681 35.630324,58 40.067388,58 c 7.230746,0 8.009079,-0.181486 7.505146,-1.75 z m 24.558587,-5.592009 c -0.612573,-0.738105 -0.817673,-1.638105 -0.455778,-2 C 72.037238,48.296096 77.433333,48 83.666667,48 92.68721,48 95,48.284271 95,49.393011 95,51.513979 92.677203,52 82.540657,52 75.984087,52 72.916694,51.604548 72.131121,50.657991 Z"
     id="path7184"
     inkscape:connector-curvature="0" />
</svg>
