<?xml version="1.0" encoding="UTF-8" standalone="no"?>
<!-- Created with Inkscape (http://www.inkscape.org/) -->

<svg
   xmlns:dc="http://purl.org/dc/elements/1.1/"
   xmlns:cc="http://creativecommons.org/ns#"
   xmlns:rdf="http://www.w3.org/1999/02/22-rdf-syntax-ns#"
   xmlns:svg="http://www.w3.org/2000/svg"
   xmlns="http://www.w3.org/2000/svg"
   xmlns:sodipodi="http://sodipodi.sourceforge.net/DTD/sodipodi-0.dtd"
   xmlns:inkscape="http://www.inkscape.org/namespaces/inkscape"
   version="1.1"
   id="svg4731"
   width="100"
   height="100"
   viewBox="0 0 100 100"
   sodipodi:docname="size_plus_full.svg"
   inkscape:version="0.92.2 5c3e80d, 2017-08-06">
  <metadata
     id="metadata4737">
    <rdf:RDF>
      <cc:Work
         rdf:about="">
        <dc:format>image/svg+xml</dc:format>
        <dc:type
           rdf:resource="http://purl.org/dc/dcmitype/StillImage" />
        <dc:title></dc:title>
      </cc:Work>
    </rdf:RDF>
  </metadata>
  <defs
     id="defs4735" />
  <sodipodi:namedview
     pagecolor="#ffffff"
     bordercolor="#666666"
     borderopacity="1"
     objecttolerance="10"
     gridtolerance="10"
     guidetolerance="10"
     inkscape:pageopacity="0"
     inkscape:pageshadow="2"
     inkscape:window-width="1280"
     inkscape:window-height="707"
     id="namedview4733"
     showgrid="false"
     inkscape:zoom="18.88"
     inkscape:cx="46.377684"
     inkscape:cy="82.8715"
     inkscape:window-x="0"
     inkscape:window-y="1"
     inkscape:window-maximized="1"
     inkscape:current-layer="svg4731" />
  <path
     style="fill:#000000"
     d="M 5.4294828,87.676831 C 5.1502217,86.949088 11.66134,69.061588 19.898634,47.926831 L 34.875534,9.5 h 7.294084 7.294085 l 15.233766,38.901124 c 8.378571,21.395617 14.997681,39.283117 14.709132,39.75 C 79.118052,88.618006 75.790856,89 72.012832,89 H 65.143698 L 63.19813,83.75 C 62.128067,80.8625 60.231292,75.676126 58.983075,72.224725 L 56.713588,65.949451 41.744337,66.224725 26.775087,66.5 23.451607,75.696038 C 18.455305,89.520759 18.906162,89 11.933431,89 7.8821189,89 5.7725407,88.570826 5.4294828,87.676831 Z M 47.432357,40.363876 C 44.966937,33.414008 42.673946,27.281451 42.336822,26.735973 41.901919,26.032284 32.294382,50.274288 32.027,52.75 32.01215,52.8875 36.480861,53 41.95747,53 h 9.957469 z m 34.23431,19.969457 C 81.3,59.966667 81,57.967541 81,55.890831 81,52.164876 80.94397,52.110933 76.758627,51.807498 73.664713,51.58319 72.427448,51.026556 72.185303,49.75 71.908845,48.292553 72.608729,48 76.371885,48 h 4.518533 l 0.304791,-4.741006 c 0.225425,-3.506471 0.745553,-4.824664 1.997456,-5.062282 1.368429,-0.259735 1.751536,0.600533 2,4.491006 L 85.5,47.5 90.25,47.804791 C 93.3985,48.00682 95,48.560774 95,49.447802 95,51.14041 92.783229,52 88.418213,52 85.033664,52 85,52.044318 85,56.5 c 0,4.251247 -1.356009,5.810658 -3.333333,3.833333 z"
     id="path5284"
     inkscape:connector-curvature="0" />
</svg>
